<svg width="417" height="96" viewBox="0 0 417 96" fill="none" xmlns="http://www.w3.org/2000/svg">
<path d="M0.25 0H64.5C73.875 0 81.4167 0.416667 87.125 1.25C92.875 2.08333 97.2292 3.52083 100.188 5.5625C103.146 7.60417 105.146 10.3958 106.188 13.9375C107.229 17.4792 107.75 21.9583 107.75 27.375V29.875C107.75 34.875 107.146 39.1875 105.938 42.8125C104.771 46.3958 102.5 49.3125 99.125 51.5625C95.75 53.7708 90.75 55.3333 84.125 56.25L105 96H93L72.5625 57.125C71.7292 57.1667 70.8542 57.1875 69.9375 57.1875C69.0625 57.1875 68.1458 57.1875 67.1875 57.1875H12.25V96H0.25V0ZM12.25 46.8125H65.3125C72.4375 46.8125 78.0417 46.5833 82.125 46.125C86.25 45.625 89.2708 44.7708 91.1875 43.5625C93.1458 42.3542 94.3958 40.6458 94.9375 38.4375C95.4792 36.2292 95.75 33.375 95.75 29.875V27.375C95.75 23.4167 95.375 20.2917 94.625 18C93.875 15.7083 92.375 14.0208 90.125 12.9375C87.875 11.8542 84.5208 11.1667 80.0625 10.875C75.6042 10.5417 69.6458 10.375 62.1875 10.375H12.25V46.8125Z" fill="white"/>
<path d="M129.764 96V2.56H185.828V16.512H145.508V40.832H181.348V54.656H145.508V82.048H185.828V96H129.764Z" fill="white"/>
<path d="M196.23 96V93.06L200.01 91.94C201.97 91.38 203.463 90.54 204.49 89.42C205.61 88.3 206.497 86.76 207.15 84.8L235.43 3.04H247.05L275.19 85.36C275.937 87.4133 276.777 89 277.71 90.12C278.643 91.1467 280.137 91.9867 282.19 92.64L284.29 93.2V96H248.73V93.2L251.11 92.5C253.163 91.8467 254.377 90.82 254.75 89.42C255.217 88.02 255.123 86.2933 254.47 84.24L248.59 66.18H217.65L211.63 83.96C210.977 86.0133 210.79 87.6933 211.07 89C211.35 90.3067 212.517 91.3333 214.57 92.08L217.65 93.06V96H196.23ZM219.05 62.12H247.33L233.61 19.98L219.05 62.12Z" fill="white"/>
<path d="M298.418 96V0H369.668C379.043 0 386.751 0.5625 392.793 1.6875C398.835 2.8125 403.543 5 406.918 8.25C410.335 11.4583 412.71 16.1458 414.043 22.3125C415.418 28.4792 416.105 36.625 416.105 46.75V49.25C416.105 59.0417 415.418 67.0208 414.043 73.1875C412.71 79.3125 410.335 84.0417 406.918 87.375C403.543 90.6667 398.835 92.9375 392.793 94.1875C386.751 95.3958 379.043 96 369.668 96H298.418ZM310.418 85.625H369.668C377.126 85.625 383.126 85.2708 387.668 84.5625C392.21 83.8542 395.668 82.3125 398.043 79.9375C400.418 77.5625 402.022 73.9375 402.855 69.0625C403.689 64.1875 404.105 57.5833 404.105 49.25V46.75C404.105 39.8333 403.855 34.125 403.355 29.625C402.855 25.125 401.918 21.5833 400.543 19C399.21 16.375 397.251 14.4583 394.668 13.25C392.126 12 388.814 11.2083 384.73 10.875C380.647 10.5417 375.626 10.375 369.668 10.375H310.418V85.625Z" fill="white"/>
</svg>
