<svg width="65" height="59" viewBox="0 0 65 59" fill="none" xmlns="http://www.w3.org/2000/svg">
<path fill-rule="evenodd" clip-rule="evenodd" d="M64.3664 4.30664V17.2275L62.1818 22.9697L55.1125 30.0312L46.8332 33.1201L43.2238 34.6973L47.5256 42.7754L42.8986 48.3721L32.2941 51.2432L33.4435 53.9971L32.2941 56.8389L25.8849 58.04L23.6281 56.7773L21.4308 53.9971L22.5968 51.2432L15.798 46.4668L12.3781 40.5195L15.798 33.8398L8.46989 30.0312L3.61345 24.0244L0.423019 11.3389L2.77946 0L8.46989 0.849609L13.2121 7.17773L24.592 24.4346L28.0695 24.0244L30.9718 24.4346H34.5929L38.214 25.6357L43.8752 14.5029L59.8254 0L64.3664 4.30664ZM24.6281 55.9873L25.8537 56.7773L26.6506 55.9873L27.2375 54.6748H24.1437L24.6281 55.9873ZM17.9562 45.2119L19.258 46.0742L20.131 47.793H22.0217L23.1125 48.3662L22.2277 46.0742L20.4875 45.2119H17.9562ZM32.2482 46.0742L31.3634 48.3662L32.4543 47.793H34.3449L35.2179 46.0742L36.5197 45.2119H33.9875L32.2482 46.0742Z" fill="white"/>
</svg>
