<svg width="294" height="97" viewBox="0 0 294 97" fill="none" xmlns="http://www.w3.org/2000/svg">
<path d="M64 62.125C63.5833 59.2917 63.0417 57 62.375 55.25C61.7917 53.4167 60.9167 52 59.75 51C58.6667 50 57.1667 49.3333 55.25 49C53.4167 48.5833 51.0833 48.375 48.25 48.375H27.625V79.625C27.625 82.125 27.75 84.1667 28 85.75C28.3333 87.3333 28.9583 88.625 29.875 89.625C30.875 90.5417 32.2083 91.2083 33.875 91.625C35.625 91.9583 37.875 92.2083 40.625 92.375V95H0.75V92.375C3.41667 92.2083 5.54167 91.9167 7.125 91.5C8.79167 91.0833 10.0417 90.375 10.875 89.375C11.7917 88.2917 12.375 86.875 12.625 85.125C12.9583 83.2917 13.125 80.875 13.125 77.875V16.125C13.125 13.625 12.9583 11.5833 12.625 10C12.375 8.41667 11.7917 7.16667 10.875 6.25C9.95833 5.33333 8.66667 4.66667 7 4.25C5.41667 3.83333 3.33333 3.54167 0.75 3.375V0.5H76.5L76.75 21H73.375C72.7083 17.75 71.9583 15.1667 71.125 13.25C70.2917 11.25 69.0833 9.70833 67.5 8.625C66 7.54167 63.9583 6.83333 61.375 6.5C58.875 6.16667 55.625 6 51.625 6H32.25C30.25 6 28.9583 6.29167 28.375 6.875C27.875 7.45833 27.625 8.79167 27.625 10.875V42.5H48.25C51.0833 42.5 53.4167 42.3333 55.25 42C57.1667 41.6667 58.6667 41 59.75 40C60.9167 39 61.7917 37.625 62.375 35.875C63.0417 34.125 63.5833 31.8333 64 29H67.375V62.125H64ZM117.75 83.75C117.75 86.125 117.969 87.7812 118.406 88.7188C118.844 89.5938 119.688 90.0312 120.938 90.0312C122.375 90.0312 123.938 89.375 125.625 88.0625V90.7812C123.812 92.7812 122.219 94.1562 120.844 94.9062C119.469 95.6562 117.875 96.0312 116.062 96.0312C113.875 96.0312 112.25 95.4375 111.188 94.25C110.188 93 109.562 90.9375 109.312 88.0625C106.062 90.875 103.219 92.9062 100.781 94.1562C98.3438 95.4062 95.9688 96.0312 93.6562 96.0312C90.2812 96.0312 87.5312 94.9688 85.4062 92.8438C83.3438 90.7188 82.3125 87.9688 82.3125 84.5938C82.3125 82.9062 82.625 81.2188 83.25 79.5312C83.9375 77.7812 84.9062 76.375 86.1562 75.3125C87.2812 74.3125 88.3125 73.4688 89.25 72.7812C90.25 72.0312 91.5312 71.2812 93.0938 70.5312C94.6562 69.7188 96.6875 68.8125 99.1875 67.8125C101.688 66.8125 105 65.4688 109.125 63.7812V56.9375C109.125 54 108.406 51.7812 106.969 50.2812C105.594 48.7812 103.594 48.0312 100.969 48.0312C98.7812 48.0312 96.9375 48.5625 95.4375 49.625C94 50.625 93.2812 51.8438 93.2812 53.2812C93.2812 53.8438 93.3438 54.5625 93.4688 55.4375C93.6562 56.3125 93.75 57.0312 93.75 57.5938C93.75 58.8438 93.25 59.9062 92.25 60.7812C91.3125 61.6562 90.2188 62.0938 88.9688 62.0938C87.7188 62.0938 86.625 61.6562 85.6875 60.7812C84.8125 59.8438 84.375 58.75 84.375 57.5C84.375 56.125 84.75 54.7188 85.5 53.2812C86.3125 51.8438 87.4062 50.5625 88.7812 49.4375C90.2188 48.1875 92.125 47.2188 94.5 46.5312C96.9375 45.8438 99.5625 45.5 102.375 45.5C105.625 45.5 108.344 46.0625 110.531 47.1875C112.781 48.25 114.5 49.75 115.688 51.6875C116.438 52.9375 116.969 54.4062 117.281 56.0938C117.594 57.7188 117.75 59.9375 117.75 62.75V83.75ZM109.125 66.4062C105.875 67.5938 103.094 68.75 100.781 69.875C98.5312 70.9375 96.6875 72.0625 95.25 73.25C93.875 74.375 92.875 75.5938 92.25 76.9062C91.625 78.2188 91.3125 79.6562 91.3125 81.2188V81.6875C91.3125 82.8125 91.5 83.9062 91.875 84.9688C92.25 85.9688 92.75 86.8438 93.375 87.5938C94.0625 88.3438 94.8438 88.9375 95.7188 89.375C96.5938 89.8125 97.5 90.0312 98.4375 90.0312C99.5625 90.0312 100.812 89.8125 102.188 89.375C103.625 88.875 104.969 88.2812 106.219 87.5938C107.469 86.9062 108.25 86.1875 108.562 85.4375C108.938 84.6875 109.125 83.5 109.125 81.875V66.4062ZM131.32 95V47.75H139.195V54.0254C140.371 52.4395 141.82 51.1133 143.543 50.0469C145.293 48.9805 147.617 48.1875 150.516 47.668C153.441 47.1211 157.27 46.8477 162 46.8477C168.18 46.8477 173.047 47.4492 176.602 48.6523C180.184 49.8555 182.727 52.002 184.23 55.0918C185.734 58.1816 186.486 62.5566 186.486 68.2168V95H178.57V68.2168C178.57 64.9902 178.297 62.3926 177.75 60.4238C177.203 58.4551 176.26 56.9648 174.92 55.9531C173.607 54.9414 171.789 54.2715 169.465 53.9434C167.141 53.5879 164.188 53.4102 160.605 53.4102C155.137 53.4102 150.844 53.8613 147.727 54.7637C144.609 55.666 142.408 57.0879 141.123 59.0293C139.838 60.9434 139.195 63.4453 139.195 66.5352V95H131.32ZM230.988 83.75C230.988 86.125 231.207 87.7812 231.645 88.7188C232.082 89.5938 232.926 90.0312 234.176 90.0312C235.613 90.0312 237.176 89.375 238.863 88.0625V90.7812C237.051 92.7812 235.457 94.1562 234.082 94.9062C232.707 95.6562 231.113 96.0312 229.301 96.0312C227.113 96.0312 225.488 95.4375 224.426 94.25C223.426 93 222.801 90.9375 222.551 88.0625C219.301 90.875 216.457 92.9062 214.02 94.1562C211.582 95.4062 209.207 96.0312 206.895 96.0312C203.52 96.0312 200.77 94.9688 198.645 92.8438C196.582 90.7188 195.551 87.9688 195.551 84.5938C195.551 82.9062 195.863 81.2188 196.488 79.5312C197.176 77.7812 198.145 76.375 199.395 75.3125C200.52 74.3125 201.551 73.4688 202.488 72.7812C203.488 72.0312 204.77 71.2812 206.332 70.5312C207.895 69.7188 209.926 68.8125 212.426 67.8125C214.926 66.8125 218.238 65.4688 222.363 63.7812V56.9375C222.363 54 221.645 51.7812 220.207 50.2812C218.832 48.7812 216.832 48.0312 214.207 48.0312C212.02 48.0312 210.176 48.5625 208.676 49.625C207.238 50.625 206.52 51.8438 206.52 53.2812C206.52 53.8438 206.582 54.5625 206.707 55.4375C206.895 56.3125 206.988 57.0312 206.988 57.5938C206.988 58.8438 206.488 59.9062 205.488 60.7812C204.551 61.6562 203.457 62.0938 202.207 62.0938C200.957 62.0938 199.863 61.6562 198.926 60.7812C198.051 59.8438 197.613 58.75 197.613 57.5C197.613 56.125 197.988 54.7188 198.738 53.2812C199.551 51.8438 200.645 50.5625 202.02 49.4375C203.457 48.1875 205.363 47.2188 207.738 46.5312C210.176 45.8438 212.801 45.5 215.613 45.5C218.863 45.5 221.582 46.0625 223.77 47.1875C226.02 48.25 227.738 49.75 228.926 51.6875C229.676 52.9375 230.207 54.4062 230.52 56.0938C230.832 57.7188 230.988 59.9375 230.988 62.75V83.75ZM222.363 66.4062C219.113 67.5938 216.332 68.75 214.02 69.875C211.77 70.9375 209.926 72.0625 208.488 73.25C207.113 74.375 206.113 75.5938 205.488 76.9062C204.863 78.2188 204.551 79.6562 204.551 81.2188V81.6875C204.551 82.8125 204.738 83.9062 205.113 84.9688C205.488 85.9688 205.988 86.8438 206.613 87.5938C207.301 88.3438 208.082 88.9375 208.957 89.375C209.832 89.8125 210.738 90.0312 211.676 90.0312C212.801 90.0312 214.051 89.8125 215.426 89.375C216.863 88.875 218.207 88.2812 219.457 87.5938C220.707 86.9062 221.488 86.1875 221.801 85.4375C222.176 84.6875 222.363 83.5 222.363 81.875V66.4062ZM239.895 26.5625L243.082 25.8125C244.707 25.375 246.113 25 247.301 24.6875C248.488 24.3125 249.582 23.9688 250.582 23.6562C251.645 23.3438 252.613 23.0625 253.488 22.8125C254.426 22.5 255.426 22.1875 256.488 21.875L256.863 22.1562V67.1562L271.582 54.0312C273.207 52.5312 274.02 51.25 274.02 50.1875C274.02 49.5625 273.645 49.125 272.895 48.875C272.145 48.625 270.738 48.4375 268.676 48.3125V46.8125H290.52V48.5C288.832 48.4375 287.301 48.5625 285.926 48.875C284.551 49.125 283.051 49.7188 281.426 50.6562C279.801 51.5938 277.895 52.9688 275.707 54.7812C273.52 56.5312 270.738 58.9062 267.363 61.9062L264.27 64.7188L280.77 85.625C282.957 88.375 284.957 90.3438 286.77 91.5312C288.645 92.6562 290.77 93.3125 293.145 93.5V95H269.895V93.5H271.863C272.551 93.5 273.082 93.3438 273.457 93.0312C273.895 92.7188 274.113 92.3125 274.113 91.8125C274.113 91.5 274.02 91.1875 273.832 90.875C273.707 90.5 273.395 90.0625 272.895 89.5625C272.52 89.0625 272.301 88.75 272.238 88.625L271.863 88.1562L256.863 68.1875V87.875C256.863 89.6875 257.301 91.0312 258.176 91.9062C259.113 92.7188 260.645 93.1875 262.77 93.3125L264.926 93.5V95H239.895V93.5C241.77 93.1875 243.238 92.9062 244.301 92.6562C245.426 92.3438 246.238 91.9688 246.738 91.5312C247.238 91.0312 247.551 90.375 247.676 89.5625C247.801 88.75 247.863 87.6562 247.863 86.2812V34.625C247.863 32.0625 247.551 30.3438 246.926 29.4688C246.301 28.5938 245.082 28.1562 243.27 28.1562C242.77 28.1562 242.238 28.1875 241.676 28.25C241.176 28.25 240.582 28.2812 239.895 28.3438V26.5625Z" fill="white"/>
</svg>
